<svg width="351" height="133" viewBox="0 0 351 133" fill="none" xmlns="http://www.w3.org/2000/svg">
<path d="M345 13C275.284 -0.279206 203.683 8.77234 137 31" stroke="#3B82F6" stroke-width="12" stroke-linecap="round"/>
<path d="M133 33C110.192 42.3477 87.0878 49.9341 67 65" stroke="#3B82F6" stroke-width="12" stroke-linecap="round"/>
<path d="M65 65C57.5967 71.1946 47.3534 79.1742 43.4444 88.5556C41.9834 92.062 40.2202 96.6686 37.4444 99.4444C34.2631 102.626 33.248 104.942 31.4444 109C29.6485 113.041 26.5294 113.941 25 117" stroke="#3B82F6" stroke-width="12" stroke-linecap="round"/>
<path d="M21 123C18.8467 117.482 11 105.879 11 100C11 96.1947 9.86349 84.4317 7 83" stroke="#3B82F6" stroke-width="12" stroke-linecap="round"/>
<path d="M21 127C31.0001 125.049 39.061 123 49 123" stroke="#3B82F6" stroke-width="12" stroke-linecap="round"/>
<path d="M49 123H59" stroke="#3B82F6" stroke-width="12" stroke-linecap="round"/>
</svg>
